<?xml version="1.0" encoding="iso-8859-1"?>
<!-- Generator: Adobe Illustrator 13.0.0, SVG Export Plug-In  -->
<!DOCTYPE svg PUBLIC "-//W3C//DTD SVG 1.1//EN" "http://www.w3.org/Graphics/SVG/1.1/DTD/svg11.dtd" [
        <!ENTITY ns_flows "http://ns.adobe.com/Flows/1.0/">
        ]>
<svg version="1.1"
     xmlns="http://www.w3.org/2000/svg" xmlns:xlink="http://www.w3.org/1999/xlink" xmlns:a="http://ns.adobe.com/AdobeSVGViewerExtensions/3.0/"
     x="0px" y="0px" width="441px" height="85px" viewBox="-0.0396 -0.9131 441 85" enable-background="new -0.0396 -0.9131 441 85"
     xml:space="preserve">
<defs>
</defs>
    <path fill-rule="evenodd" clip-rule="evenodd" fill="#6B6C72" d="M26.0366,29.1846h-3.8022l-3.457,18.0625
	c-1.167,6.0933-4.019,8.2539-8.9888,8.2539c-5.1855,0-6.5249-2.4634-5.6606-7.1304l3.6729-19.186H3.9116L0.3252,48.1978
	c-1.1235,5.877,0.3887,10.5874,8.9019,10.5874c7.3032,0,11.8833-3.5005,13.3096-11.106L26.0366,29.1846z"/>
    <path fill-rule="evenodd" clip-rule="evenodd" fill="#6B6C72" d="M47.6353,43.7471c0.8213-4.4941-0.5186-7.3027-4.4941-7.3027
	c-4.4941,0-7.9082,4.3643-9.939,8.9014h-0.0864c1.5122-4.5806,2.1172-7.0435,2.377-8.4697h-3.7598
	c-0.5615,3.1548-1.3394,7.1733-1.9014,10.2417L27.6709,58.353h3.8027l0.9077-4.8398c0.9937-5.3154,5.4014-13.7417,9.377-13.7417
	c1.9448,0,2.5498,1.4692,1.9014,4.8398L41.0239,58.353h3.8027L47.6353,43.7471z"/>
    <path fill-rule="evenodd" clip-rule="evenodd" fill="#6B6C72" d="M61.7173,30.6968c0.0864-1.3394-0.9937-2.4199-2.3765-2.4199
	c-1.4263,0-2.6797,1.1235-2.7227,2.5928c-0.0864,1.3394,0.9507,2.4629,2.3765,2.4629
	C60.3779,33.3325,61.6309,32.166,61.7173,30.6968z M59.9023,36.876h-3.8027L51.9941,58.353h3.8032L59.9023,36.876z"/>
    <path fill-rule="evenodd" clip-rule="evenodd" fill="#6B6C72" d="M83.1475,37.2217l-3.5869-1.2529l-9.0747,17.6738h-0.043
	c-0.0869-1.2964-0.2598-2.8086-0.4756-4.1484L67.9795,36.876H63.874l3.8027,21.4771h3.9756L83.1475,37.2217z"/>
    <path fill-rule="evenodd" clip-rule="evenodd" fill="#6B6C72" d="M101.457,41.3701c0-2.5493-1.7285-4.8828-6.3091-4.8828
	c-7.1299,0-11.7539,6.957-11.7539,15.2974c0,4.8398,2.2905,6.957,7.2168,6.957c2.8086,0,5.3149-0.4751,7.3892-1.2964V54.334
	c-1.8579,0.7778-4.0186,1.2534-6.0498,1.2534c-3.457,0-4.6235-0.8643-4.6235-4.1919c0-0.7778,0.0859-1.8579,0.2158-2.5063
	C96.7471,48.5435,101.457,45.9941,101.457,41.3701z M97.6113,41.8457c0,2.5928-2.9385,3.9321-9.5933,4.1914
	c0.9937-3.6299,3.2842-6.6113,6.6978-6.6113C96.4443,39.4258,97.6113,40.29,97.6113,41.8457z"/>
    <path fill-rule="evenodd" clip-rule="evenodd" fill="#6B6C72" d="M118.8257,36.4873c-4.1489-0.6914-6.7417,3.1113-9.1616,8.3398
	l-0.0864-0.043c1.2534-3.7598,1.8584-6.0498,2.2041-7.9082h-3.7163l-4.062,21.4771h3.8027l0.9072-4.8398
	c1.1235-5.9634,5.3584-14.3901,9.334-13.2661L118.8257,36.4873z"/>
    <path fill-rule="evenodd" clip-rule="evenodd" fill="#6B6C72" d="M132.6958,36.79c-1.0806-0.1733-2.1606-0.3027-3.6733-0.3027
	c-5.5742,0-8.5127,2.8521-8.5127,6.5249c0,5.1855,6.4819,5.7476,6.4819,9.1611c0,2.2471-1.9014,3.3706-4.7104,3.3706
	c-1.21,0-2.3765-0.2158-3.5-0.5615l-0.6914,3.457c1.0801,0.2158,2.2471,0.3022,3.6729,0.3022c6.0933,0,9.2476-3.4136,9.2476-7.0005
	c0-4.8398-6.5249-5.7471-6.5249-9.1611c0-1.8149,1.4692-3.1543,4.2778-3.1543c1.0806,0,2.2041,0.1729,3.2412,0.5186L132.6958,36.79z
	"/>
    <path fill-rule="evenodd" clip-rule="evenodd" fill="#6B6C72" d="M145.2656,30.6968c0.0864-1.3394-0.9937-2.4199-2.3765-2.4199
	c-1.4263,0-2.6792,1.1235-2.7227,2.5928c-0.0864,1.3394,0.9507,2.4629,2.377,2.4629
	C143.9263,33.3325,145.1792,32.166,145.2656,30.6968z M143.4507,36.876h-3.8027l-4.105,21.4771h3.8027L143.4507,36.876z"/>
    <path fill-rule="evenodd" clip-rule="evenodd" fill="#6B6C72" d="M161.1211,36.876h-5.8335l1.5122-7.8643l-4.0186,0.9072
	l-1.3398,6.957h-4.3213l-0.605,3.0254h4.3647l-2.2905,11.8398c-0.9072,4.8833,0.2163,6.9575,4.624,6.9575
	c1.2529,0,2.7656-0.1729,4.0186-0.4321l0.2593-3.2412c-0.8643,0.2163-1.7715,0.3457-2.9814,0.3457
	c-2.1177,0-2.5498-0.9072-1.9448-4.2349l2.1177-11.2349h5.8335L161.1211,36.876z"/>
    <path fill-rule="evenodd" clip-rule="evenodd" fill="#6B6C72" d="M182.3369,37.1787c-1.9878-0.3887-4.2778-0.6484-6.7412-0.6484
	c-9.377,0-13.4824,7.8218-13.4824,15.7295c0,4.5376,1.6855,6.5254,4.7969,6.5254c5.2285,0,8.4697-5.877,10.0254-9.2046
	l0.0864,0.0435c-1.2964,4.0186-2.1177,6.8706-2.5063,8.729h3.8457C179.269,53.2104,180.0469,49.1919,182.3369,37.1787z
	 M178.0156,39.9873l-0.3022,1.7285c-0.9941,5.1426-5.4019,13.7417-9.4639,13.7417c-1.3394,0-2.2036-1.1235-2.2036-3.9321
	c0-5.3154,2.5063-11.9268,8.9019-11.9268C176.1577,39.5986,177.1514,39.7715,178.0156,39.9873z M182.8125,29.9624
	c0-1.167-0.9507-2.2041-2.2471-2.2041s-2.4199,1.0371-2.4199,2.3765c0,1.2534,0.9937,2.2476,2.29,2.2476
	S182.8125,31.3882,182.8125,29.9624z M174.5156,29.9624c0-1.167-0.9507-2.2041-2.2471-2.2041s-2.4199,1.0371-2.4199,2.4199
	c0,1.21,0.9937,2.2041,2.29,2.2041S174.5156,31.3882,174.5156,29.9624z"/>
    <path fill-rule="evenodd" clip-rule="evenodd" fill="#6B6C72" d="M199.5845,36.876h-5.8335l1.5122-7.8643l-4.019,0.9072
	l-1.3394,6.957h-4.3213l-0.605,3.0254h4.3647l-2.2905,11.8398c-0.9077,4.8833,0.2158,6.9575,4.624,6.9575
	c1.2529,0,2.7651-0.1729,4.0186-0.4321l0.2593-3.2412c-0.8643,0.2163-1.7715,0.3457-2.9814,0.3457
	c-2.1177,0-2.5498-0.9072-1.9448-4.2349l2.1177-11.2349h5.8335L199.5845,36.876z"/>
    <path fill-rule="evenodd" clip-rule="evenodd" fill="#F47920" d="M304.7437,29.1846h-4.9697l-9.6797,18.6245
	c-1.0801,2.0742-1.7715,3.5-2.5928,5.5313h-0.0864c0-1.7285-0.1729-3.6733-0.4751-5.7905l-2.5068-18.3652h-4.71l-9.7227,29.1685
	h4.105l5.0991-16.4644c0.9072-2.8521,1.5986-5.1855,2.2041-7.562h0.043c0,1.8579,0.2593,4.3213,0.562,6.5249l2.4194,17.5015h4.1489
	l9.6362-18.7544c1.0806-2.0742,1.8584-3.8892,2.4199-5.272h0.0864c-0.1729,1.7285-0.3457,4.062-0.5186,7.3892l-0.8208,16.6372h4.105
	L304.7437,29.1846z"/>
    <path fill-rule="evenodd" clip-rule="evenodd" fill="#F47920" d="M330.3643,36.876h-3.8032l-0.9072,4.8398
	c-0.9937,5.3154-5.4448,13.7417-9.4204,13.7417c-1.9014,0-2.5063-1.4692-1.8579-4.8398l2.6357-13.7417h-3.8462l-2.7651,14.606
	c-0.8647,4.4941,0.5181,7.3032,4.4937,7.3032c4.4946,0,7.8647-4.3647,9.896-8.9019h0.0864
	c-1.5122,4.5806-2.0742,7.0435-2.377,8.4697h3.8032L330.3643,36.876z M329.4136,29.9624c0-1.167-0.9512-2.2041-2.2471-2.2041
	c-1.2969,0-2.4199,1.0371-2.4199,2.3765c0,1.2534,0.9937,2.2476,2.29,2.2476S329.4136,31.3882,329.4136,29.9624z M321.1167,29.9624
	c0-1.167-0.9512-2.2041-2.2476-2.2041s-2.4194,1.0371-2.4194,2.4199c0,1.21,0.9937,2.2041,2.29,2.2041
	S321.1167,31.3882,321.1167,29.9624z"/>
    <path fill-rule="evenodd" clip-rule="evenodd" fill="#F47920" d="M353.3911,43.7471c0.8213-4.4941-0.5186-7.3027-4.4941-7.3027
	c-4.4941,0-7.9082,4.3643-9.939,8.9014h-0.0864c1.5127-4.5806,2.1172-7.0435,2.3765-8.4697h-3.7593
	c-0.562,3.1548-1.3398,7.1733-1.9014,10.2417l-2.1606,11.2354h3.8027l0.9077-4.8398c0.9937-5.3154,5.4014-13.7417,9.377-13.7417
	c1.9443,0,2.5498,1.4692,1.9014,4.8398l-2.6357,13.7417h3.8022L353.3911,43.7471z"/>
    <path fill-rule="evenodd" clip-rule="evenodd" fill="#F47920" d="M374.5171,37.1787c-1.3398-0.3887-2.7656-0.6484-4.5376-0.6484
	c-7.6919,0-12.3159,6.8711-12.3159,15.0815c0,4.062,1.9014,7.0869,7.4761,7.0869c2.1606,0,4.1484-0.4756,5.6606-1.0371
	l0.2598-3.4141c-1.3398,0.6484-3.1548,1.0371-4.8403,1.0371c-3.7593,0-4.4937-2.29-4.4937-4.5371
	c0-4.8833,2.5493-11.0195,7.9941-11.0195c1.5122,0,2.7656,0.3027,3.9326,0.8213L374.5171,37.1787z"/>
    <path fill-rule="evenodd" clip-rule="evenodd" fill="#F47920" d="M395.5244,43.7471c0.8643-4.4941-0.5186-7.3027-4.4941-7.3027
	c-4.4941,0-7.9077,4.3643-9.939,8.9014h-0.0864c1.5991-4.71,2.0742-6.7842,2.4199-8.4697l1.9443-10.0684h-3.8022l-6.0068,31.5454
	h3.8027l0.9072-4.8398c0.9941-5.3154,5.4019-13.7417,9.3774-13.7417c1.9448,0,2.5498,1.4692,1.9014,4.8398l-2.6362,13.7417h3.8032
	L395.5244,43.7471z"/>
    <path fill-rule="evenodd" clip-rule="evenodd" fill="#F47920" d="M417.9468,41.3701c0-2.5493-1.7285-4.8828-6.3096-4.8828
	c-7.1299,0-11.7539,6.957-11.7539,15.2974c0,4.8398,2.2905,6.957,7.2168,6.957c2.8086,0,5.3149-0.4751,7.3896-1.2964V54.334
	c-1.8584,0.7778-4.019,1.2534-6.0503,1.2534c-3.457,0-4.6235-0.8643-4.6235-4.1919c0-0.7778,0.0864-1.8579,0.2158-2.5063
	C413.2363,48.5435,417.9468,45.9941,417.9468,41.3701z M414.1006,41.8457c0,2.5928-2.9385,3.9321-9.5933,4.1914
	c0.9941-3.6299,3.2842-6.6113,6.6982-6.6113C412.9341,39.4258,414.1006,40.29,414.1006,41.8457z"/>
    <path fill-rule="evenodd" clip-rule="evenodd" fill="#F47920" d="M440.4575,43.7471c0.8208-4.4941-0.519-7.3027-4.4946-7.3027
	c-4.4941,0-7.9077,4.3643-9.939,8.9014h-0.0864c1.5127-4.5806,2.1177-7.0435,2.377-8.4697h-3.7598
	c-0.5615,3.1548-1.3394,7.1733-1.9014,10.2417l-2.1606,11.2354h3.8027l0.9077-4.8398c0.9937-5.3154,5.4014-13.7417,9.377-13.7417
	c1.9448,0,2.5498,1.4692,1.9014,4.8398l-2.6357,13.7417h3.8027L440.4575,43.7471z"/>
    <path fill-rule="evenodd" clip-rule="evenodd" fill="#6B6C72" d="M208.8901,0h-1.9229l-0.9292,4.9912
	c-0.54-0.0864-0.9722-0.1299-1.5122-0.1299c-4.689,0-6.7412,3.9111-6.7412,7.8647c0,2.269,0.8423,3.2627,2.3979,3.2627
	c2.6147,0,4.2349-2.9385,5.0127-4.6021l0.0435,0.0215c-0.6484,2.0093-1.0586,3.4355-1.2314,4.3643h1.9014
	c0.1509-0.8857,0.4321-2.3765,0.7129-3.8672L208.8901,0z M205.7358,6.5898l-0.1514,0.8643
	c-0.4971,2.5713-2.7012,6.8711-4.7319,6.8711c-0.6699,0-1.1021-0.562-1.1021-1.9663c0-2.6577,1.2534-5.9634,4.4512-5.9634
	C204.8066,6.3955,205.3037,6.4819,205.7358,6.5898z"/>
    <path fill-rule="evenodd" clip-rule="evenodd" fill="#6B6C72" d="M218.5078,7.2813c0-1.2744-0.8643-2.4414-3.1548-2.4414
	c-3.5649,0-5.877,3.4785-5.877,7.6489c0,2.4199,1.145,3.4785,3.6084,3.4785c1.4043,0,2.6577-0.2378,3.6948-0.6484v-1.5557
	c-0.9292,0.3892-2.0098,0.627-3.0249,0.627c-1.7285,0-2.312-0.4321-2.312-2.0962c0-0.3887,0.043-0.9287,0.1079-1.2529
	C216.1523,10.8682,218.5078,9.5933,218.5078,7.2813z M216.585,7.519c0,1.2964-1.4697,1.9663-4.7969,2.0957
	c0.4971-1.8149,1.6421-3.3057,3.3491-3.3057C216.0015,6.3091,216.585,6.7412,216.585,7.519z"/>
    <path fill-rule="evenodd" clip-rule="evenodd" fill="#6B6C72" d="M227.1919,4.8398c-2.0742-0.3457-3.3706,1.5557-4.5806,4.1699
	l-0.0435-0.0215c0.627-1.8799,0.9292-3.0249,1.1021-3.9541h-1.8579l-2.0313,10.7383h1.9014l0.4536-2.4194
	c0.562-2.9819,2.6792-7.1953,4.667-6.6333L227.1919,4.8398z"/>
    <path fill-rule="evenodd" clip-rule="evenodd" fill="#6B6C72" d="M243.0674,3.9326c0-1.7285-1.2964-2.8091-4.0835-2.8091
	c-1.6636,0-3.1328,0.0435-4.1699,0.0649l-2.7656,14.584c1.3828,0.022,2.7656,0.0649,3.6729,0.0649
	c4.1055,0,6.374-2.3335,6.374-5.0557c0-1.2749-0.7993-2.3984-2.1821-2.6792V8.0811C241.5117,7.4976,243.0674,6.1362,243.0674,3.9326
	z M240.9932,4.3647c0,2.0093-1.8149,3.1328-4.1914,3.1328c-0.4971,0-0.8428,0-1.2534-0.0215l0.9077-4.7104
	c0.605-0.0215,1.2749-0.043,1.9878-0.043C240.4316,2.7227,240.9932,3.3921,240.9932,4.3647z M240.021,10.9546
	c0,1.75-1.3828,3.2627-3.9541,3.2627c-0.7993,0-1.4043-0.0435-1.7715-0.1084l0.9722-5.0991
	c0.3457-0.0215,1.0806-0.0215,1.6421-0.0215C239.0488,8.9883,240.021,9.6582,240.021,10.9546z"/>
    <path fill-rule="evenodd" clip-rule="evenodd" fill="#6B6C72" d="M254.7134,5.0342h-1.9014l-0.4541,2.4199
	c-0.4966,2.6577-2.7222,6.8711-4.71,6.8711c-0.9507,0-1.2534-0.7349-0.9292-2.4199l1.3179-6.8711h-1.9229l-1.3828,7.3032
	c-0.4321,2.2471,0.2593,3.6514,2.2471,3.6514c2.2471,0,3.9326-2.1821,4.9478-4.4507h0.0435
	c-0.7563,2.29-1.0371,3.5215-1.1885,4.2344h1.9014L254.7134,5.0342z"/>
    <path fill-rule="evenodd" clip-rule="evenodd" fill="#6B6C72" d="M266.2266,8.4697c0.4106-2.2471-0.2593-3.6514-2.2471-3.6514
	c-2.2471,0-3.9536,2.1821-4.9692,4.4507h-0.0435c0.7563-2.29,1.0591-3.5215,1.1885-4.2349h-1.8799
	c-0.2808,1.5776-0.6694,3.5869-0.9507,5.1211l-1.0801,5.6172h1.9014l0.4536-2.4194c0.4971-2.6577,2.7007-6.8711,4.6885-6.8711
	c0.9727,0,1.2749,0.7349,0.9507,2.4199l-1.3179,6.8706h1.9014L266.2266,8.4697z"/>
    <path fill-rule="evenodd" clip-rule="evenodd" fill="#6B6C72" d="M279.4473,0h-1.9229l-0.9292,4.9912
	c-0.54-0.0864-0.9722-0.1299-1.5127-0.1299c-4.6885,0-6.7412,3.9111-6.7412,7.8647c0,2.269,0.8428,3.2627,2.3984,3.2627
	c2.6143,0,4.2349-2.9385,5.0127-4.6021l0.043,0.0215c-0.6479,2.0093-1.0586,3.4355-1.2314,4.3643h1.9014
	c0.1514-0.8857,0.4321-2.3765,0.7129-3.8672L279.4473,0z M276.2925,6.5898l-0.1514,0.8643
	c-0.4966,2.5713-2.7007,6.8711-4.7314,6.8711c-0.6699,0-1.1021-0.562-1.1021-1.9663c0-2.6577,1.2529-5.9634,4.4507-5.9634
	C275.3638,6.3955,275.8604,6.4819,276.2925,6.5898z"/>
    <path fill-rule="evenodd" clip-rule="evenodd" fill="#6B6C72" d="M289.0645,7.2813c0-1.2744-0.8643-2.4414-3.1543-2.4414
	c-3.5649,0-5.877,3.4785-5.877,7.6489c0,2.4199,1.145,3.4785,3.6084,3.4785c1.4043,0,2.6572-0.2378,3.6943-0.6484v-1.5557
	c-0.9287,0.3892-2.0093,0.627-3.0249,0.627c-1.7285,0-2.3115-0.4321-2.3115-2.0962c0-0.3887,0.043-0.9287,0.1079-1.2529
	C286.7095,10.8682,289.0645,9.5933,289.0645,7.2813z M287.1416,7.519c0,1.2964-1.4692,1.9663-4.7964,2.0957
	c0.4966-1.8149,1.6421-3.3057,3.3486-3.3057C286.5581,6.3091,287.1416,6.7412,287.1416,7.519z"/>
    <path fill-rule="evenodd" clip-rule="evenodd" fill="#6B6C72" d="M297.144,4.9912c-0.5405-0.0864-1.0806-0.1514-1.8369-0.1514
	c-2.7871,0-4.2563,1.4263-4.2563,3.2627c0,2.5928,3.2407,2.8735,3.2407,4.5806c0,1.1235-0.9502,1.6851-2.355,1.6851
	c-0.605,0-1.1885-0.1079-1.75-0.2808l-0.3457,1.7285c0.54,0.1079,1.1235,0.1514,1.8364,0.1514c3.0464,0,4.624-1.707,4.624-3.5005
	c0-2.4199-3.2627-2.8735-3.2627-4.5806c0-0.9072,0.7349-1.5771,2.1392-1.5771c0.54,0,1.1021,0.0864,1.6206,0.2593L297.144,4.9912z"
    />
    <path fill-rule="evenodd" clip-rule="evenodd" fill="#6B6C72" d="M314.8589,5.1855l-1.7935-0.583l-4.1914,8.8584h-0.0215
	c-0.022-0.6914-0.1299-1.9448-0.2378-2.7227l-0.7778-5.7041h-2.0093l-4.1055,8.4053h-0.0215c0-0.7134-0.0864-1.6855-0.1729-2.6792
	l-0.5186-5.7261h-2.0313l1.1885,10.7383h2.0957l4.062-8.2534h0.022c0.0215,0.7563,0.0864,1.4907,0.1729,2.1606l0.8423,6.0928h2.1826
	L314.8589,5.1855z"/>
    <path fill-rule="evenodd" clip-rule="evenodd" fill="#6B6C72" d="M324.1025,7.2813c0-1.2744-0.8643-2.4414-3.1543-2.4414
	c-3.5654,0-5.8774,3.4785-5.8774,7.6489c0,2.4199,1.1455,3.4785,3.6084,3.4785c1.4043,0,2.6577-0.2378,3.6948-0.6484v-1.5557
	c-0.9292,0.3892-2.0093,0.627-3.0249,0.627c-1.7285,0-2.312-0.4321-2.312-2.0962c0-0.3887,0.0435-0.9287,0.1079-1.2529
	C321.7476,10.8682,324.1025,9.5933,324.1025,7.2813z M322.1797,7.519c0,1.2964-1.4692,1.9663-4.7969,2.0957
	c0.4971-1.8149,1.6421-3.3057,3.3491-3.3057C321.5962,6.3091,322.1797,6.7412,322.1797,7.519z"/>
    <path fill-rule="evenodd" clip-rule="evenodd" fill="#6B6C72" d="M335.3579,8.4697c0.4321-2.2471-0.2593-3.6514-2.2471-3.6514
	c-2.2471,0-3.9541,2.1821-4.9697,4.4507h-0.043c0.7993-2.355,1.0371-3.3921,1.21-4.2349L330.2803,0h-1.9014l-3.0029,15.7725h1.9009
	l0.4541-2.4194c0.4966-2.6577,2.7007-6.8711,4.6885-6.8711c0.9722,0,1.2749,0.7349,0.9507,2.4199l-1.3179,6.8706h1.9014
	L335.3579,8.4697z"/>
    <path fill-rule="evenodd" clip-rule="evenodd" fill="#6B6C72" d="M344.9482,4.8398c-2.0742-0.3457-3.3706,1.5557-4.5806,4.1699
	l-0.043-0.0215c0.6265-1.8799,0.9292-3.0249,1.1021-3.9541h-1.8584l-2.0308,10.7383h1.9014l0.4536-2.4194
	c0.562-2.9819,2.6792-7.1953,4.667-6.6333L344.9482,4.8398z"/>
    <path fill="#F47920" d="M244.1631,60.2954c-0.29,0.8032-1.4961,1.0425-1.8037,0.4219c-0.3071-0.6191-0.5562-0.7056-1.0469-1.0879
	c-0.5649-0.4395,0.2368-0.6108,0.2368-0.6108c-0.1211-0.0806-0.4766-0.2583-0.9336-0.3828
	c-0.6997-0.1909-0.604-1.0308,0.1211-1.0596c0.9819-0.0381,1.5186,0.0938,2.3501,0.5962c0.5283,0.3193,1.0503,0.4478,1.6675,0.4966
	c0.7754,0.061,0.7368,1.7275-0.4385,1.647L244.1631,60.2954z"/>
    <path fill="#F47920" d="M216.6055,78.5796l-0.333,0.1294c-0.6987,0.272-1.0947-0.7139-0.4019-1.001l0.3887-0.1509l2.0938-0.814
	c1.0562-0.3311,1.7202-0.4575,2.8252-0.5293c3.2129-0.209,3.731,0.6685,6.4478,1.7905c3.1675,1.3081,4.8682,2.4702,8.5845,2.4175
	c3.8398-0.0547,8.481-2.3579,11.791-4.0796c0.6592-0.3428,1.167,0.4629,0.5732,0.9097c-3.4146,2.5679-8.9297,5.0869-13.3223,5.0894
	c-6.2217,0.0034-7.3472-3.0952-12.6694-4.4307C220.9268,77.4951,218.2476,77.978,216.6055,78.5796z"/>
    <path fill="#F47920" d="M216.4775,40.668c-0.3906,3.9941-0.0103,7.7856,1.6797,11.4487c1.4858,3.2183,2.1968,4.4126,2.2769,8.2148
	c0.1021,4.8564-0.3179,7.5679-0.728,14.4976l0.001,0.332c0,0.6699-1.9854,0.9448-2.3237,1.0571
	c-2.8799,0.958-5.5107,2.543-7.7637,4.5708c-0.5522,0.4976-1.248-0.1636-0.7793-0.7407c1.8271-2.2505,3.4263-3.5176,5.8174-4.6899
	c0.355-0.1738,1.9077-0.9507,3.1987-1.3286c0.2876-3.9438,1.0317-14.9077,0.2964-17.2427
	c-0.5332-1.6938-1.4648-3.2031-2.0811-4.8462c-1.0527-2.8076-1.6475-6.8662-1.4731-9.876c0.1709-2.9531,0.9326-5.7881,2.3906-8.3398
	c0.3682-0.6445,1.231-0.2427,0.9746,0.4541C217.064,36.6221,216.731,38.0767,216.4775,40.668z"/>
    <path fill="#F47920" d="M227.1914,71.4224c-0.6924,0.6924-1.894,1.4971-3.3677,1.5747c-0.7344,0.0386-0.8862-0.8486-0.1807-1.0562
	c1.1016-0.3242,1.9619-1.0098,2.5435-1.5913c0.2354-0.2354,0.793-1.146,1.2886-2.4067c0.2666-0.6792,1.1074-0.4785,1.0391,0.2476
	C228.3672,69.7598,227.6968,70.9175,227.1914,71.4224z"/>
    <path fill="#F47920" d="M230.0269,63.5801c-0.1055-0.5283,0.0928-1.5513,0.3896-2.4604c0.2324-0.7124,1.2534-0.3838,1.0269,0.3311
	c-0.3433,1.0806-0.2158,1.624,0.1807,2.6079c0.1475,0.3662,0.3364,0.7251,0.5913,1.0112c0.4976,0.5581-0.2305,1.2646-0.7734,0.7505
	C230.6587,65.0786,230.144,64.1665,230.0269,63.5801z"/>
    <path fill="#F47920" d="M248.4326,49.5186c-1.6499-0.021-2.6206,0.6035-3.4941,1.2183c-0.5811,0.4087-1.146-0.1289-0.7666-0.729
	c1.2524-1.9805,3.3804-2.3726,5.5474-2.1904c0.9028,0.0762,1.918,3.2568,0.3887,2.3008
	C249.4668,49.7173,248.9272,49.5244,248.4326,49.5186z"/>
    <path fill="#F47920" d="M223.0249,41.7646c-1.3516,5.1235-0.0669,8.9912,4.3101,11.9668c0.1909,0.1294,0.2827,0.4722,0.1831,0.6797
	c-0.519,1.0806-0.6377,2.2251-0.3506,3.3896c0.1719,0.6973-0.5703,1.0259-0.9712,0.4302c-0.7534-1.1187-1.0386-2.3491-0.8062-3.668
	c-3.416-2.1992-5.0137-5.8335-4.7607-9.8901c0.2026-3.2598,1.9893-6.6431,4.1992-8.9805c0.5132-0.5425,1.2734,0.1035,0.8213,0.6978
	C224.23,38.2549,223.623,39.498,223.0249,41.7646z"/>
    <path fill="#F47920" d="M243.9541,66.9854l0.4458-0.0122c0.21-0.0181,0.3501-0.0601,0.3408-0.23
	c-0.6455-1.9219,1.5713-0.9312,2.4292-0.7295c-0.0137-1.8203-0.0723-4.084-0.0723-5.5361c0-1.0132,1.1382-2.1387,1.5796-3.0894
	c0.0981-0.2109,0.2808-0.7456,0.4941-1.1929c-1.5337,0.5537-3.2446-0.2051-4.2778-1.4106
	c-0.4741-0.5532,0.0938-1.2012,0.7041-0.8027c1.2642,0.8242,2.502,1.2251,3.7246,0.1748c0.5249-0.2319,0.8677-0.1123,1.1519,0.1099
	l0.2642,0.2241c0.584-0.8374,0.5269-1.874,0.2378-2.6963c-0.3755-1.0674-0.8696-1.6353-1.875-2.1543l-2.6191-4.5229
	c-0.811-1.5581-0.1416-3.7725-1.8789-5.4502c-0.3906-0.377-1.3667-0.7671-1.4976-1.0444c-0.6055-1.2813-2.1724-3.7437-3.4917-4.5469
	c-1.6094-0.9795-4.9927-1.2241-6.8525-1.0972c-0.7456,0.0508-0.8618-0.9492-0.124-1.0708c1.0938-0.1797,2.209-0.2793,3.3179-0.2622
	c-0.145-0.7993-0.3081-4.1841,0.27-4.7622l1.064-1.064l-0.6265-0.376l-2.2046-0.4902l-3.583-0.2559
	c-0.7427-0.0527-0.7437-1.021-0.0015-1.0757c0,0,2.1357-0.3618,3.501-0.2598c1.0815,0.0811,1.7544,0.0786,2.7285,0.5317
	c1.1753,0.5469,2.7896,1.459,0.8018,3.2261l-0.3999,0.5c-0.208,1.356-0.1206,2.7681,0.2886,4.0796
	c3.0981,0.5278,5.2192,2.9399,6.584,5.6328c2.583,1.1958,3.6992,4.3784,3.7363,7.063c0.6719,1.3447,1.377,2.7437,2.2603,3.9604
	c1.1475,0.5205,2.0229,2.0249,2.1753,2.5688c0.3604,1.2866,0.7036,4.5063-0.8799,5.2676c-0.1211,0.0586-0.2505,0.106-0.3892,0.1494
	c-0.3594,0.2393-0.5381,0.3872-0.7314,0.4795c-0.4614,1.0308-0.9766,1.9272-1.6045,2.8809c-0.1821,0.2773-0.543,0.8013-0.543,1.1504
	c0,2.3687,0.0693,4.1772,0.1494,6.0454c0.043,1.001-1.5264,0.3813-2.5273,0.1875c-0.1172,0.272-0.2021,0.4463-0.333,0.6812
	c0.0078,0.6938-0.3516,1.4028-0.9058,1.8184c-0.0347,0.3149,0.2456,0.9644,0.2456,1.3813c0,0.5688-0.2534,1.0151-0.5659,1.3823
	c2.2456,1.1904,3.6362,0.7124,6.0972,1.0679c4.0688,0.5879,6.8643,4.1929,8.7676,7.5371l0.4497,2.2378
	c0.1362,0.728-0.7642,0.9854-1.0332,0.2954c-1.2778-3.2788-3.7397-6.7036-7.0815-8.1094c-2.2012-0.9258-2.5767-0.6377-4.665-0.7241
	c-1.7007-0.0698-2.3428-1.0093-3.8584-1.1416c-0.8374-0.0728-1.6387-0.2344-2.4341-0.4546
	c-0.0815,0.1587-0.1914,0.3389-0.2808,0.5562c-0.2676,0.6514-0.1714,2.3354-0.1714,3.022c0,0.7437-0.9575,0.8184-1.0723,0.0835
	c-0.2603-1.6646-0.5352-2.2651-0.2622-4c-1.6909-0.5723-2.771-1.3906-3.9448-2.5298c-0.3774-0.3657-0.7646-0.7646-1.1846-1.1992
	c-0.5068-0.6001,0.2549-1.2881,0.7754-0.75c0.3657,0.4321,0.7026,0.7803,1.0947,1.1172c0.3213,0.2764,0.6802,0.5454,1.1089,0.833
	c1.2202,0.8184,2.0347,1.1753,3.4155,1.5244l1.9824,0.291c1.624,0.2114,1.6943-1.7642,1.2505-2.5786
	c-0.1685-0.3086,0.1025-0.7207,0.3491-1.0215c-0.8921-0.1563-1.791-0.4116-2.5527-0.873c-0.6318-0.3833-0.2368-1.2168,0.46-0.9697
	C242.4126,66.8237,243.1694,66.9644,243.9541,66.9854z"/>
    <path fill="#F47920" d="M242.1299,45.4497c-1.502,0.4038-2.3213,0.7207-3.7046,1.4321c-0.6611,0.3398-1.165-0.479-0.564-0.916
	c2.1245-1.5439,4.5298-2.2568,7.1377-2.1309c0.7427,0.0361,0.77,0.9976,0.0308,1.0752
	C243.8857,45.0313,243.2407,45.1509,242.1299,45.4497z"/>
    <path fill="#F47920" d="M229.8809,54.9619c0.9541-1.2017,1.6201-2.5801,1.9902-4.0674c0.1558-0.6279,0.7671-0.6758,1.02-0.0811
	c0.3877,0.9146,1.2002,1.481,2.1899,1.5317c0.7393,0.0376,0.7817,0.9673,0.0493,1.0723c-0.7813,0.1123-1.6177,0.0513-2.3657-0.2129
	c-0.7852,1.8501-2.103,3.4673-3.9565,4.3105c-0.668,0.3037-1.1338-0.4531-0.561-0.9121
	C228.9575,56.0342,229.3154,55.6748,229.8809,54.9619z"/>
</svg>